# xmcd
#
# Track frame offsets: 
#        150
#        19532
#        38970
#        41445
#        43910
#
# Disc length: 616 seconds
#
# Revision: 0
# Processed by: cddbd v1.5PL3 Copyright (c) Steve Scherf et al.
# Submitted via: ExactAudioCopy v0.90b4
#
DISCID=37026605
DTITLE=Nelly - (Hot S**t) Country Grammar [CD Single)
DYEAR=2000
DGENRE=Rap
TTITLE0=(Hot S**t) Country Grammar (Clean Edit)
TTITLE1=(Hot S**t) Country Grammar (Dirty Edit)
TTITLE2=Greed Hate Envy
TTITLE3=E.I.
TTITLE4=Ride Wit Me
EXTD=
EXTT0=
EXTT1=
EXTT2=
EXTT3=
EXTT4=
PLAYORDER=
